<mxfile host="Electron" modified="2024-04-23T01:00:25.000Z" agent="Mozilla/5.0 (Windows NT 10.0; Win64; x64) AppleWebKit/537.36 (KHTML, like Gecko) draw.io/24.2.5 Chrome/120.0.6099.109 Electron/28.1.0 Safari/537.36" etag="2_e1h5xRPYHJoiIseSto" version="24.2.5" type="device">
  <diagram name="ページ1" id="sCDpSftJdvc8JZTHM6sW">
    <mxGraphModel dx="2049" dy="1196" grid="1" gridSize="10" guides="1" tooltips="1" connect="1" arrows="1" fold="1" page="1" pageScale="1" pageWidth="2000" pageHeight="2000" math="0" shadow="0">
      <root>
        <mxCell id="0" />
        <mxCell id="1" parent="0" />
        <mxCell id="z-c96MHRl6IHbRlYh6S7-40" value="" style="rounded=0;whiteSpace=wrap;html=1;movable=0;resizable=0;rotatable=0;deletable=0;editable=0;locked=1;connectable=0;" parent="1" vertex="1">
          <mxGeometry x="1030" y="110" width="400" height="820" as="geometry" />
        </mxCell>
        <mxCell id="z-c96MHRl6IHbRlYh6S7-34" value="" style="rounded=0;whiteSpace=wrap;html=1;movable=0;resizable=0;rotatable=0;deletable=0;editable=0;locked=1;connectable=0;" parent="1" vertex="1">
          <mxGeometry x="20" y="120" width="940" height="1150" as="geometry" />
        </mxCell>
        <mxCell id="z-c96MHRl6IHbRlYh6S7-1" value="&lt;h3&gt;&lt;font color=&quot;#f7f7f7&quot;&gt;[serializable] MapSquads.ReachedEventArgs&lt;/font&gt;&lt;/h3&gt;" style="swimlane;fontStyle=0;childLayout=stackLayout;horizontal=1;startSize=30;horizontalStack=0;resizeParent=1;resizeParentMax=0;resizeLast=0;collapsible=1;marginBottom=0;whiteSpace=wrap;html=1;fillColor=#fa6800;strokeColor=#C73500;fontColor=#000000;" parent="1" vertex="1">
          <mxGeometry x="65" y="240" width="400" height="390" as="geometry" />
        </mxCell>
        <mxCell id="z-c96MHRl6IHbRlYh6S7-2" value="MapLocationにMapSquadが到着したときのArgs&lt;div&gt;SaveDataInfoにencounterのデータとしてtacticsから始める際のデータとして保存されている&lt;/div&gt;" style="text;strokeColor=none;fillColor=none;align=left;verticalAlign=middle;spacingLeft=4;spacingRight=4;overflow=hidden;points=[[0,0.5],[1,0.5]];portConstraint=eastwest;rotatable=0;whiteSpace=wrap;html=1;" parent="z-c96MHRl6IHbRlYh6S7-1" vertex="1">
          <mxGeometry y="30" width="400" height="60" as="geometry" />
        </mxCell>
        <mxCell id="z-c96MHRl6IHbRlYh6S7-3" value="PlayerSquadID&amp;nbsp; 到着したplayerID" style="text;strokeColor=none;fillColor=none;align=left;verticalAlign=middle;spacingLeft=4;spacingRight=4;overflow=hidden;points=[[0,0.5],[1,0.5]];portConstraint=eastwest;rotatable=0;whiteSpace=wrap;html=1;" parent="z-c96MHRl6IHbRlYh6S7-1" vertex="1">
          <mxGeometry y="90" width="400" height="30" as="geometry" />
        </mxCell>
        <mxCell id="z-c96MHRl6IHbRlYh6S7-4" value="MapLocationID&amp;nbsp; 到着したMapLocationのID" style="text;strokeColor=none;fillColor=none;align=left;verticalAlign=middle;spacingLeft=4;spacingRight=4;overflow=hidden;points=[[0,0.5],[1,0.5]];portConstraint=eastwest;rotatable=0;whiteSpace=wrap;html=1;" parent="z-c96MHRl6IHbRlYh6S7-1" vertex="1">
          <mxGeometry y="120" width="400" height="30" as="geometry" />
        </mxCell>
        <mxCell id="z-c96MHRl6IHbRlYh6S7-5" value="ReachedDateTime&amp;nbsp; 到着した時刻" style="text;strokeColor=none;fillColor=none;align=left;verticalAlign=middle;spacingLeft=4;spacingRight=4;overflow=hidden;points=[[0,0.5],[1,0.5]];portConstraint=eastwest;rotatable=0;whiteSpace=wrap;html=1;" parent="z-c96MHRl6IHbRlYh6S7-1" vertex="1">
          <mxGeometry y="150" width="400" height="30" as="geometry" />
        </mxCell>
        <mxCell id="z-c96MHRl6IHbRlYh6S7-6" value="SpawnRequestData&amp;nbsp; エンカウントした場合の敵データ" style="text;strokeColor=none;fillColor=none;align=left;verticalAlign=middle;spacingLeft=4;spacingRight=4;overflow=hidden;points=[[0,0.5],[1,0.5]];portConstraint=eastwest;rotatable=0;whiteSpace=wrap;html=1;" parent="z-c96MHRl6IHbRlYh6S7-1" vertex="1">
          <mxGeometry y="180" width="400" height="30" as="geometry" />
        </mxCell>
        <mxCell id="z-c96MHRl6IHbRlYh6S7-7" value="TacticsSceneID&amp;nbsp; initでlocation.DefaultかSpecificTacticsIDか決定" style="text;strokeColor=none;fillColor=none;align=left;verticalAlign=middle;spacingLeft=4;spacingRight=4;overflow=hidden;points=[[0,0.5],[1,0.5]];portConstraint=eastwest;rotatable=0;whiteSpace=wrap;html=1;" parent="z-c96MHRl6IHbRlYh6S7-1" vertex="1">
          <mxGeometry y="210" width="400" height="30" as="geometry" />
        </mxCell>
        <mxCell id="z-c96MHRl6IHbRlYh6S7-8" value="ReachedAtLocation　指定した場所に到着したならtrue、経由ならfalse" style="text;strokeColor=none;fillColor=none;align=left;verticalAlign=middle;spacingLeft=4;spacingRight=4;overflow=hidden;points=[[0,0.5],[1,0.5]];portConstraint=eastwest;rotatable=0;whiteSpace=wrap;html=1;" parent="z-c96MHRl6IHbRlYh6S7-1" vertex="1">
          <mxGeometry y="240" width="400" height="30" as="geometry" />
        </mxCell>
        <mxCell id="z-c96MHRl6IHbRlYh6S7-9" value="&lt;h5&gt;Getter and Setter&lt;/h5&gt;" style="text;strokeColor=none;fillColor=none;align=left;verticalAlign=middle;spacingLeft=4;spacingRight=4;overflow=hidden;points=[[0,0.5],[1,0.5]];portConstraint=eastwest;rotatable=0;whiteSpace=wrap;html=1;" parent="z-c96MHRl6IHbRlYh6S7-1" vertex="1">
          <mxGeometry y="270" width="400" height="30" as="geometry" />
        </mxCell>
        <mxCell id="z-c96MHRl6IHbRlYh6S7-10" value="Squad Player&amp;nbsp; PlayerSquadIDからSquadのデータを取得する" style="text;strokeColor=none;fillColor=none;align=left;verticalAlign=middle;spacingLeft=4;spacingRight=4;overflow=hidden;points=[[0,0.5],[1,0.5]];portConstraint=eastwest;rotatable=0;whiteSpace=wrap;html=1;" parent="z-c96MHRl6IHbRlYh6S7-1" vertex="1">
          <mxGeometry y="300" width="400" height="30" as="geometry" />
        </mxCell>
        <mxCell id="z-c96MHRl6IHbRlYh6S7-11" value="SpawnSquadData&amp;nbsp; Enemy&amp;nbsp;&lt;div&gt;エンカウントした敵軍をSpawnRequestDataのIDとlevel, GameLevelから実データを取得する &lt;span style=&quot;background-color: rgb(204, 0, 0);&quot;&gt;getter&lt;/span&gt;&lt;/div&gt;" style="text;strokeColor=none;fillColor=none;align=left;verticalAlign=middle;spacingLeft=4;spacingRight=4;overflow=hidden;points=[[0,0.5],[1,0.5]];portConstraint=eastwest;rotatable=0;whiteSpace=wrap;html=1;" parent="z-c96MHRl6IHbRlYh6S7-1" vertex="1">
          <mxGeometry y="330" width="400" height="60" as="geometry" />
        </mxCell>
        <mxCell id="z-c96MHRl6IHbRlYh6S7-12" value="&lt;h3&gt;SpawnSquadDataContainer.cs&amp;nbsp; &amp;nbsp;SpawnRequestArgs&lt;/h3&gt;" style="swimlane;fontStyle=0;childLayout=stackLayout;horizontal=1;startSize=30;horizontalStack=0;resizeParent=1;resizeParentMax=0;resizeLast=0;collapsible=1;marginBottom=0;whiteSpace=wrap;html=1;" parent="1" vertex="1">
          <mxGeometry x="510" y="240" width="400" height="330" as="geometry" />
        </mxCell>
        <mxCell id="z-c96MHRl6IHbRlYh6S7-13" value="Spawnした内容をSaveDataに保存しておくためのclass" style="text;strokeColor=none;fillColor=none;align=left;verticalAlign=middle;spacingLeft=4;spacingRight=4;overflow=hidden;points=[[0,0.5],[1,0.5]];portConstraint=eastwest;rotatable=0;whiteSpace=wrap;html=1;" parent="z-c96MHRl6IHbRlYh6S7-12" vertex="1">
          <mxGeometry y="30" width="400" height="30" as="geometry" />
        </mxCell>
        <mxCell id="z-c96MHRl6IHbRlYh6S7-14" value="SpawnSquadID&amp;nbsp; SquadのID" style="text;strokeColor=none;fillColor=none;align=left;verticalAlign=middle;spacingLeft=4;spacingRight=4;overflow=hidden;points=[[0,0.5],[1,0.5]];portConstraint=eastwest;rotatable=0;whiteSpace=wrap;html=1;" parent="z-c96MHRl6IHbRlYh6S7-12" vertex="1">
          <mxGeometry y="60" width="400" height="30" as="geometry" />
        </mxCell>
        <mxCell id="z-c96MHRl6IHbRlYh6S7-15" value="BaseSquadID&amp;nbsp; &amp;nbsp; &amp;nbsp;Squadが別部隊の隷下の場合BaseとなるSquadのID" style="text;strokeColor=none;fillColor=none;align=left;verticalAlign=middle;spacingLeft=4;spacingRight=4;overflow=hidden;points=[[0,0.5],[1,0.5]];portConstraint=eastwest;rotatable=0;whiteSpace=wrap;html=1;" parent="z-c96MHRl6IHbRlYh6S7-12" vertex="1">
          <mxGeometry y="90" width="400" height="30" as="geometry" />
        </mxCell>
        <mxCell id="z-c96MHRl6IHbRlYh6S7-16" value="LocationID　　　Spawnする位置のID" style="text;strokeColor=none;fillColor=none;align=left;verticalAlign=middle;spacingLeft=4;spacingRight=4;overflow=hidden;points=[[0,0.5],[1,0.5]];portConstraint=eastwest;rotatable=0;whiteSpace=wrap;html=1;" parent="z-c96MHRl6IHbRlYh6S7-12" vertex="1">
          <mxGeometry y="120" width="400" height="30" as="geometry" />
        </mxCell>
        <mxCell id="z-c96MHRl6IHbRlYh6S7-17" value="Level　　　　　SpawnするLevel&amp;nbsp; (Followerの撃破で引かれていく)" style="text;strokeColor=none;fillColor=none;align=left;verticalAlign=middle;spacingLeft=4;spacingRight=4;overflow=hidden;points=[[0,0.5],[1,0.5]];portConstraint=eastwest;rotatable=0;whiteSpace=wrap;html=1;" parent="z-c96MHRl6IHbRlYh6S7-12" vertex="1">
          <mxGeometry y="150" width="400" height="30" as="geometry" />
        </mxCell>
        <mxCell id="z-c96MHRl6IHbRlYh6S7-18" value="SpawnTime&amp;nbsp; &amp;nbsp; &amp;nbsp; &amp;nbsp; Spawnした時間" style="text;strokeColor=none;fillColor=none;align=left;verticalAlign=middle;spacingLeft=4;spacingRight=4;overflow=hidden;points=[[0,0.5],[1,0.5]];portConstraint=eastwest;rotatable=0;whiteSpace=wrap;html=1;" parent="z-c96MHRl6IHbRlYh6S7-12" vertex="1">
          <mxGeometry y="180" width="400" height="30" as="geometry" />
        </mxCell>
        <mxCell id="z-c96MHRl6IHbRlYh6S7-19" value="IsNecessaryForEvent&amp;nbsp; &amp;nbsp; イベント用に必要なSquadか" style="text;strokeColor=none;fillColor=none;align=left;verticalAlign=middle;spacingLeft=4;spacingRight=4;overflow=hidden;points=[[0,0.5],[1,0.5]];portConstraint=eastwest;rotatable=0;whiteSpace=wrap;html=1;" parent="z-c96MHRl6IHbRlYh6S7-12" vertex="1">
          <mxGeometry y="210" width="400" height="30" as="geometry" />
        </mxCell>
        <mxCell id="z-c96MHRl6IHbRlYh6S7-20" value="Sort&amp;nbsp; &amp;nbsp; &amp;nbsp; &amp;nbsp; &amp;nbsp; &amp;nbsp; &amp;nbsp; &amp;nbsp; &amp;nbsp; &amp;nbsp; &amp;nbsp;Spawnする優先順位" style="text;strokeColor=none;fillColor=none;align=left;verticalAlign=middle;spacingLeft=4;spacingRight=4;overflow=hidden;points=[[0,0.5],[1,0.5]];portConstraint=eastwest;rotatable=0;whiteSpace=wrap;html=1;" parent="z-c96MHRl6IHbRlYh6S7-12" vertex="1">
          <mxGeometry y="240" width="400" height="30" as="geometry" />
        </mxCell>
        <mxCell id="z-c96MHRl6IHbRlYh6S7-21" value="SpecificTacticsSceneID&amp;nbsp; &amp;nbsp; &amp;nbsp; &amp;nbsp;TacticsSceneを指定したSquadの場合　nullならLocationのDefaultが入る" style="text;strokeColor=none;fillColor=none;align=left;verticalAlign=middle;spacingLeft=4;spacingRight=4;overflow=hidden;points=[[0,0.5],[1,0.5]];portConstraint=eastwest;rotatable=0;whiteSpace=wrap;html=1;" parent="z-c96MHRl6IHbRlYh6S7-12" vertex="1">
          <mxGeometry y="270" width="400" height="30" as="geometry" />
        </mxCell>
        <mxCell id="z-c96MHRl6IHbRlYh6S7-22" value="StartPosition&amp;nbsp; &amp;nbsp; Tacticsの始まる位置&amp;nbsp; EventGraph.InOut.StartPosition" style="text;strokeColor=none;fillColor=none;align=left;verticalAlign=middle;spacingLeft=4;spacingRight=4;overflow=hidden;points=[[0,0.5],[1,0.5]];portConstraint=eastwest;rotatable=0;whiteSpace=wrap;html=1;" parent="z-c96MHRl6IHbRlYh6S7-12" vertex="1">
          <mxGeometry y="300" width="400" height="30" as="geometry" />
        </mxCell>
        <mxCell id="z-c96MHRl6IHbRlYh6S7-23" value="&lt;h1&gt;&lt;font style=&quot;font-size: 33px;&quot;&gt;Tacticsのシーンの流れ&lt;/font&gt;&lt;/h1&gt;" style="text;html=1;align=center;verticalAlign=middle;whiteSpace=wrap;rounded=0;" parent="1" vertex="1">
          <mxGeometry width="530" height="90" as="geometry" />
        </mxCell>
        <mxCell id="z-c96MHRl6IHbRlYh6S7-24" value="&lt;h2&gt;TacticsシーンのMainMapより入力される情報&lt;/h2&gt;&lt;div&gt;DataController.SaveData.ReachedEventArgsに保存されている&lt;/div&gt;&lt;div&gt;TacticsのShowSceneあたりはGameManagerで処理されている&lt;/div&gt;" style="text;html=1;align=center;verticalAlign=middle;whiteSpace=wrap;rounded=0;movable=0;resizable=0;rotatable=0;deletable=0;editable=0;locked=1;connectable=0;" parent="1" vertex="1">
          <mxGeometry x="302.5" y="150" width="375" height="30" as="geometry" />
        </mxCell>
        <mxCell id="z-c96MHRl6IHbRlYh6S7-28" style="edgeStyle=orthogonalEdgeStyle;rounded=0;orthogonalLoop=1;jettySize=auto;html=1;entryX=1;entryY=0.5;entryDx=0;entryDy=0;exitX=1;exitY=0.5;exitDx=0;exitDy=0;" parent="1" source="z-c96MHRl6IHbRlYh6S7-26" target="z-c96MHRl6IHbRlYh6S7-27" edge="1">
          <mxGeometry relative="1" as="geometry">
            <Array as="points">
              <mxPoint x="480" y="695" />
              <mxPoint x="480" y="780" />
            </Array>
          </mxGeometry>
        </mxCell>
        <mxCell id="z-c96MHRl6IHbRlYh6S7-29" value="内部でこれを呼び出している" style="edgeLabel;html=1;align=center;verticalAlign=middle;resizable=0;points=[];" parent="z-c96MHRl6IHbRlYh6S7-28" vertex="1" connectable="0">
          <mxGeometry x="0.2364" relative="1" as="geometry">
            <mxPoint y="-16" as="offset" />
          </mxGeometry>
        </mxCell>
        <mxCell id="z-c96MHRl6IHbRlYh6S7-26" value="&lt;h3&gt;GameManager.LoadDataFromTacticsScene&lt;/h3&gt;&lt;div&gt;TacticsからTacticsを読み込み&lt;/div&gt;" style="rounded=1;whiteSpace=wrap;html=1;" parent="1" vertex="1">
          <mxGeometry x="65" y="660" width="315" height="70" as="geometry" />
        </mxCell>
        <mxCell id="z-c96MHRl6IHbRlYh6S7-27" value="&lt;h3&gt;GameManager.ShowTactics(string tacticsSceneID)&lt;/h3&gt;&lt;div&gt;MainMapSceneからTacticsのロードを呼び出し&lt;/div&gt;" style="rounded=1;whiteSpace=wrap;html=1;" parent="1" vertex="1">
          <mxGeometry x="67.5" y="750" width="360" height="60" as="geometry" />
        </mxCell>
        <mxCell id="z-c96MHRl6IHbRlYh6S7-30" style="edgeStyle=orthogonalEdgeStyle;rounded=0;orthogonalLoop=1;jettySize=auto;html=1;entryX=0;entryY=0.5;entryDx=0;entryDy=0;" parent="1" source="z-c96MHRl6IHbRlYh6S7-7" target="z-c96MHRl6IHbRlYh6S7-27" edge="1">
          <mxGeometry relative="1" as="geometry" />
        </mxCell>
        <mxCell id="z-c96MHRl6IHbRlYh6S7-32" style="edgeStyle=orthogonalEdgeStyle;rounded=0;orthogonalLoop=1;jettySize=auto;html=1;shape=link;" parent="1" source="z-c96MHRl6IHbRlYh6S7-13" target="z-c96MHRl6IHbRlYh6S7-6" edge="1">
          <mxGeometry relative="1" as="geometry" />
        </mxCell>
        <mxCell id="z-c96MHRl6IHbRlYh6S7-47" value="" style="edgeStyle=orthogonalEdgeStyle;rounded=0;orthogonalLoop=1;jettySize=auto;html=1;" parent="1" source="z-c96MHRl6IHbRlYh6S7-35" target="z-c96MHRl6IHbRlYh6S7-41" edge="1">
          <mxGeometry relative="1" as="geometry" />
        </mxCell>
        <mxCell id="gAJQrgaK4tt0CnrQDoEg-7" value="" style="edgeStyle=orthogonalEdgeStyle;rounded=0;orthogonalLoop=1;jettySize=auto;html=1;" parent="1" source="z-c96MHRl6IHbRlYh6S7-35" target="gAJQrgaK4tt0CnrQDoEg-6" edge="1">
          <mxGeometry relative="1" as="geometry" />
        </mxCell>
        <mxCell id="z-c96MHRl6IHbRlYh6S7-35" value="&lt;h3&gt;UnitsController.SetUnitsAsEnemy&lt;/h3&gt;&lt;div&gt;EnemyをUnitにセットする&lt;/div&gt;&lt;div&gt;SpawnRequestData.StartPositionでTileに紐づけられたStartPositionのSort順にTileとUnitsのセットを作成&lt;/div&gt;" style="rounded=1;whiteSpace=wrap;html=1;" parent="1" vertex="1">
          <mxGeometry x="1085" y="350" width="290" height="110" as="geometry" />
        </mxCell>
        <mxCell id="z-c96MHRl6IHbRlYh6S7-46" value="" style="edgeStyle=orthogonalEdgeStyle;rounded=0;orthogonalLoop=1;jettySize=auto;html=1;" parent="1" source="z-c96MHRl6IHbRlYh6S7-38" target="z-c96MHRl6IHbRlYh6S7-35" edge="1">
          <mxGeometry relative="1" as="geometry" />
        </mxCell>
        <mxCell id="z-c96MHRl6IHbRlYh6S7-38" value="&lt;h3&gt;TacticsTablet.SetStartPosition(string tileID)&lt;/h3&gt;&lt;div&gt;SpawnRequestDataのStartPositionよりPlayerUnitが開始する位置をTabletにPrepare用に表示する&lt;/div&gt;" style="rounded=1;whiteSpace=wrap;html=1;" parent="1" vertex="1">
          <mxGeometry x="1070" y="230" width="320" height="100" as="geometry" />
        </mxCell>
        <mxCell id="z-c96MHRl6IHbRlYh6S7-39" value="&lt;h2 style=&quot;&quot;&gt;TacticsController.Load&lt;/h2&gt;&lt;h1 style=&quot;margin-top: 0px;&quot;&gt;&lt;div style=&quot;font-size: 12px; font-weight: 400;&quot;&gt;Loadを順番に行うメインのFunc&lt;/div&gt;&lt;/h1&gt;" style="text;html=1;whiteSpace=wrap;overflow=hidden;rounded=0;align=center;" parent="1" vertex="1">
          <mxGeometry x="1120" y="120" width="220" height="80" as="geometry" />
        </mxCell>
        <mxCell id="z-c96MHRl6IHbRlYh6S7-50" style="edgeStyle=orthogonalEdgeStyle;rounded=0;orthogonalLoop=1;jettySize=auto;html=1;" parent="1" source="z-c96MHRl6IHbRlYh6S7-41" target="z-c96MHRl6IHbRlYh6S7-42" edge="1">
          <mxGeometry relative="1" as="geometry" />
        </mxCell>
        <mxCell id="z-c96MHRl6IHbRlYh6S7-41" value="&lt;h3&gt;eventSceneController.PlayEventIfNeeded&lt;/h3&gt;&lt;div&gt;イベント終了時まで待つ&lt;/div&gt;" style="rounded=1;whiteSpace=wrap;html=1;" parent="1" vertex="1">
          <mxGeometry x="1075" y="480" width="310" height="80" as="geometry" />
        </mxCell>
        <mxCell id="z-c96MHRl6IHbRlYh6S7-51" style="edgeStyle=orthogonalEdgeStyle;rounded=0;orthogonalLoop=1;jettySize=auto;html=1;" parent="1" source="z-c96MHRl6IHbRlYh6S7-42" target="z-c96MHRl6IHbRlYh6S7-44" edge="1">
          <mxGeometry relative="1" as="geometry" />
        </mxCell>
        <mxCell id="z-c96MHRl6IHbRlYh6S7-42" value="&lt;h3&gt;tacticsTablet.ShowPreparePanel&lt;/h3&gt;&lt;div&gt;TacticsTabletに準備UIを表示&lt;/div&gt;" style="rounded=1;whiteSpace=wrap;html=1;" parent="1" vertex="1">
          <mxGeometry x="1115" y="580" width="230" height="70" as="geometry" />
        </mxCell>
        <mxCell id="z-c96MHRl6IHbRlYh6S7-52" style="edgeStyle=orthogonalEdgeStyle;rounded=0;orthogonalLoop=1;jettySize=auto;html=1;" parent="1" source="z-c96MHRl6IHbRlYh6S7-44" target="z-c96MHRl6IHbRlYh6S7-45" edge="1">
          <mxGeometry relative="1" as="geometry" />
        </mxCell>
        <mxCell id="z-c96MHRl6IHbRlYh6S7-44" value="Prepareが終わるまで待つ" style="shape=process;whiteSpace=wrap;html=1;backgroundOutline=1;" parent="1" vertex="1">
          <mxGeometry x="1132.5" y="670" width="195" height="60" as="geometry" />
        </mxCell>
        <mxCell id="z-c96MHRl6IHbRlYh6S7-45" value="&lt;h3&gt;UnitsController.SetUnits(PlayerResults)&lt;/h3&gt;&lt;div&gt;PreparePanelでUserに設定されたPlayerの出撃情報を元にUnitsControllerがUnitを設置する&lt;/div&gt;" style="rounded=1;whiteSpace=wrap;html=1;" parent="1" vertex="1">
          <mxGeometry x="1085" y="780" width="290" height="110" as="geometry" />
        </mxCell>
        <mxCell id="z-c96MHRl6IHbRlYh6S7-53" value="&lt;h3&gt;PreparePanel.PrepareResult&lt;/h3&gt;" style="swimlane;fontStyle=0;childLayout=stackLayout;horizontal=1;startSize=30;horizontalStack=0;resizeParent=1;resizeParentMax=0;resizeLast=0;collapsible=1;marginBottom=0;whiteSpace=wrap;html=1;" parent="1" vertex="1">
          <mxGeometry x="1470" y="680" width="260" height="190" as="geometry" />
        </mxCell>
        <mxCell id="z-c96MHRl6IHbRlYh6S7-54" value="PreparePanelでUserが設定したPlayerの出撃情報を保持するClass" style="text;strokeColor=none;fillColor=none;align=left;verticalAlign=middle;spacingLeft=4;spacingRight=4;overflow=hidden;points=[[0,0.5],[1,0.5]];portConstraint=eastwest;rotatable=0;whiteSpace=wrap;html=1;" parent="z-c96MHRl6IHbRlYh6S7-53" vertex="1">
          <mxGeometry y="30" width="260" height="50" as="geometry" />
        </mxCell>
        <mxCell id="z-c96MHRl6IHbRlYh6S7-55" value="bool IsPlayer&amp;nbsp;&amp;nbsp;&lt;div&gt;PlayerかどうかEnemyの出撃もPreparePanelでDebug的に行いたいがそのための準備&lt;/div&gt;" style="text;strokeColor=none;fillColor=none;align=left;verticalAlign=middle;spacingLeft=4;spacingRight=4;overflow=hidden;points=[[0,0.5],[1,0.5]];portConstraint=eastwest;rotatable=0;whiteSpace=wrap;html=1;" parent="z-c96MHRl6IHbRlYh6S7-53" vertex="1">
          <mxGeometry y="80" width="260" height="50" as="geometry" />
        </mxCell>
        <mxCell id="z-c96MHRl6IHbRlYh6S7-56" value="string TileID Unitが位置するTileのID" style="text;strokeColor=none;fillColor=none;align=left;verticalAlign=middle;spacingLeft=4;spacingRight=4;overflow=hidden;points=[[0,0.5],[1,0.5]];portConstraint=eastwest;rotatable=0;whiteSpace=wrap;html=1;" parent="z-c96MHRl6IHbRlYh6S7-53" vertex="1">
          <mxGeometry y="130" width="260" height="30" as="geometry" />
        </mxCell>
        <mxCell id="z-c96MHRl6IHbRlYh6S7-58" value="List&amp;lt;UnitData&amp;gt; Units　出撃するUnitの実Data" style="text;strokeColor=none;fillColor=none;align=left;verticalAlign=middle;spacingLeft=4;spacingRight=4;overflow=hidden;points=[[0,0.5],[1,0.5]];portConstraint=eastwest;rotatable=0;whiteSpace=wrap;html=1;" parent="z-c96MHRl6IHbRlYh6S7-53" vertex="1">
          <mxGeometry y="160" width="260" height="30" as="geometry" />
        </mxCell>
        <mxCell id="z-c96MHRl6IHbRlYh6S7-57" style="edgeStyle=orthogonalEdgeStyle;rounded=0;orthogonalLoop=1;jettySize=auto;html=1;entryX=0.5;entryY=0;entryDx=0;entryDy=0;" parent="1" source="z-c96MHRl6IHbRlYh6S7-54" target="z-c96MHRl6IHbRlYh6S7-45" edge="1">
          <mxGeometry relative="1" as="geometry">
            <mxPoint x="1230" y="730" as="targetPoint" />
          </mxGeometry>
        </mxCell>
        <mxCell id="gAJQrgaK4tt0CnrQDoEg-6" value="&lt;h3&gt;UnitsController.SetUnits(PlayerResults)&lt;/h3&gt;&lt;div&gt;UnitをEnemyとして設置する&lt;/div&gt;&lt;div&gt;&lt;br&gt;&lt;/div&gt;" style="whiteSpace=wrap;html=1;rounded=1;" parent="1" vertex="1">
          <mxGeometry x="1495" y="352.5" width="300" height="105" as="geometry" />
        </mxCell>
        <mxCell id="pYhYACQezAOqSWnVNLAG-1" value="&lt;h3&gt;SpawnSquadData&lt;/h3&gt;" style="swimlane;fontStyle=0;childLayout=stackLayout;horizontal=1;startSize=30;horizontalStack=0;resizeParent=1;resizeParentMax=0;resizeLast=0;collapsible=1;marginBottom=0;whiteSpace=wrap;html=1;" parent="1" vertex="1">
          <mxGeometry x="545" y="770" width="330" height="180" as="geometry" />
        </mxCell>
        <mxCell id="pYhYACQezAOqSWnVNLAG-2" value="ID&amp;nbsp; &amp;nbsp; &amp;nbsp;SpawnRequestData.SpawnSquadIDに対応" style="text;strokeColor=none;fillColor=none;align=left;verticalAlign=middle;spacingLeft=4;spacingRight=4;overflow=hidden;points=[[0,0.5],[1,0.5]];portConstraint=eastwest;rotatable=0;whiteSpace=wrap;html=1;" parent="pYhYACQezAOqSWnVNLAG-1" vertex="1">
          <mxGeometry y="30" width="330" height="30" as="geometry" />
        </mxCell>
        <mxCell id="pYhYACQezAOqSWnVNLAG-3" value="EnemyLevel SpawnSquadData.Levelに対応" style="text;strokeColor=none;fillColor=none;align=left;verticalAlign=middle;spacingLeft=4;spacingRight=4;overflow=hidden;points=[[0,0.5],[1,0.5]];portConstraint=eastwest;rotatable=0;whiteSpace=wrap;html=1;" parent="pYhYACQezAOqSWnVNLAG-1" vertex="1">
          <mxGeometry y="60" width="330" height="30" as="geometry" />
        </mxCell>
        <mxCell id="pYhYACQezAOqSWnVNLAG-4" value="cost&amp;nbsp; Spawnさせるのにかかるコスト" style="text;strokeColor=none;fillColor=none;align=left;verticalAlign=middle;spacingLeft=4;spacingRight=4;overflow=hidden;points=[[0,0.5],[1,0.5]];portConstraint=eastwest;rotatable=0;whiteSpace=wrap;html=1;" parent="pYhYACQezAOqSWnVNLAG-1" vertex="1">
          <mxGeometry y="90" width="330" height="30" as="geometry" />
        </mxCell>
        <mxCell id="pYhYACQezAOqSWnVNLAG-5" value="List&amp;lt;TileAndEnemiesPair&amp;gt; SpawnするUnitと該当Tileのペア" style="text;strokeColor=none;fillColor=none;align=left;verticalAlign=middle;spacingLeft=4;spacingRight=4;overflow=hidden;points=[[0,0.5],[1,0.5]];portConstraint=eastwest;rotatable=0;whiteSpace=wrap;html=1;" parent="pYhYACQezAOqSWnVNLAG-1" vertex="1">
          <mxGeometry y="120" width="330" height="30" as="geometry" />
        </mxCell>
        <mxCell id="pYhYACQezAOqSWnVNLAG-6" value="exp 撃破時の基本exp" style="text;strokeColor=none;fillColor=none;align=left;verticalAlign=middle;spacingLeft=4;spacingRight=4;overflow=hidden;points=[[0,0.5],[1,0.5]];portConstraint=eastwest;rotatable=0;whiteSpace=wrap;html=1;" parent="pYhYACQezAOqSWnVNLAG-1" vertex="1">
          <mxGeometry y="150" width="330" height="30" as="geometry" />
        </mxCell>
        <mxCell id="Sppei-j8mScPbz1rCZ5X-1" value="&lt;h3&gt;TileAndEnemiesPair&lt;/h3&gt;" style="swimlane;fontStyle=0;childLayout=stackLayout;horizontal=1;startSize=30;horizontalStack=0;resizeParent=1;resizeParentMax=0;resizeLast=0;collapsible=1;marginBottom=0;whiteSpace=wrap;html=1;" vertex="1" parent="1">
          <mxGeometry x="545" y="980" width="230" height="90" as="geometry" />
        </mxCell>
        <mxCell id="Sppei-j8mScPbz1rCZ5X-2" value="string TileID" style="text;strokeColor=none;fillColor=none;align=left;verticalAlign=middle;spacingLeft=4;spacingRight=4;overflow=hidden;points=[[0,0.5],[1,0.5]];portConstraint=eastwest;rotatable=0;whiteSpace=wrap;html=1;" vertex="1" parent="Sppei-j8mScPbz1rCZ5X-1">
          <mxGeometry y="30" width="230" height="30" as="geometry" />
        </mxCell>
        <mxCell id="Sppei-j8mScPbz1rCZ5X-3" value="List&amp;lt;UnitAndMovePair&amp;gt; Unitと移動経路" style="text;strokeColor=none;fillColor=none;align=left;verticalAlign=middle;spacingLeft=4;spacingRight=4;overflow=hidden;points=[[0,0.5],[1,0.5]];portConstraint=eastwest;rotatable=0;whiteSpace=wrap;html=1;" vertex="1" parent="Sppei-j8mScPbz1rCZ5X-1">
          <mxGeometry y="60" width="230" height="30" as="geometry" />
        </mxCell>
        <mxCell id="Sppei-j8mScPbz1rCZ5X-5" value="" style="edgeStyle=orthogonalEdgeStyle;rounded=0;orthogonalLoop=1;jettySize=auto;html=1;entryX=0;entryY=0.5;entryDx=0;entryDy=0;" edge="1" parent="1" source="pYhYACQezAOqSWnVNLAG-5" target="Sppei-j8mScPbz1rCZ5X-2">
          <mxGeometry relative="1" as="geometry" />
        </mxCell>
        <mxCell id="Sppei-j8mScPbz1rCZ5X-6" value="&lt;h3&gt;UnitAndMovePair&lt;/h3&gt;" style="swimlane;fontStyle=0;childLayout=stackLayout;horizontal=1;startSize=30;horizontalStack=0;resizeParent=1;resizeParentMax=0;resizeLast=0;collapsible=1;marginBottom=0;whiteSpace=wrap;html=1;" vertex="1" parent="1">
          <mxGeometry x="545" y="1090" width="240" height="120" as="geometry" />
        </mxCell>
        <mxCell id="Sppei-j8mScPbz1rCZ5X-7" value="UnitID" style="text;strokeColor=none;fillColor=none;align=left;verticalAlign=middle;spacingLeft=4;spacingRight=4;overflow=hidden;points=[[0,0.5],[1,0.5]];portConstraint=eastwest;rotatable=0;whiteSpace=wrap;html=1;" vertex="1" parent="Sppei-j8mScPbz1rCZ5X-6">
          <mxGeometry y="30" width="240" height="30" as="geometry" />
        </mxCell>
        <mxCell id="Sppei-j8mScPbz1rCZ5X-8" value="RoutineWayIndex&amp;nbsp; Unitが適否発見で周回する順路のIndex" style="text;strokeColor=none;fillColor=none;align=left;verticalAlign=middle;spacingLeft=4;spacingRight=4;overflow=hidden;points=[[0,0.5],[1,0.5]];portConstraint=eastwest;rotatable=0;whiteSpace=wrap;html=1;" vertex="1" parent="Sppei-j8mScPbz1rCZ5X-6">
          <mxGeometry y="60" width="240" height="30" as="geometry" />
        </mxCell>
        <mxCell id="Sppei-j8mScPbz1rCZ5X-9" value="&lt;span style=&quot;background-color: rgb(153, 0, 0);&quot;&gt;ここにAI等々の動作も今後設定する&lt;/span&gt;" style="text;strokeColor=none;fillColor=none;align=left;verticalAlign=middle;spacingLeft=4;spacingRight=4;overflow=hidden;points=[[0,0.5],[1,0.5]];portConstraint=eastwest;rotatable=0;whiteSpace=wrap;html=1;" vertex="1" parent="Sppei-j8mScPbz1rCZ5X-6">
          <mxGeometry y="90" width="240" height="30" as="geometry" />
        </mxCell>
        <mxCell id="Sppei-j8mScPbz1rCZ5X-10" value="" style="edgeStyle=orthogonalEdgeStyle;rounded=0;orthogonalLoop=1;jettySize=auto;html=1;entryX=0;entryY=0.5;entryDx=0;entryDy=0;exitX=0;exitY=0.5;exitDx=0;exitDy=0;" edge="1" parent="1" source="Sppei-j8mScPbz1rCZ5X-3" target="Sppei-j8mScPbz1rCZ5X-7">
          <mxGeometry relative="1" as="geometry" />
        </mxCell>
        <mxCell id="Sppei-j8mScPbz1rCZ5X-11" style="edgeStyle=orthogonalEdgeStyle;rounded=0;orthogonalLoop=1;jettySize=auto;html=1;" edge="1" parent="1" source="z-c96MHRl6IHbRlYh6S7-11" target="pYhYACQezAOqSWnVNLAG-1">
          <mxGeometry relative="1" as="geometry" />
        </mxCell>
      </root>
    </mxGraphModel>
  </diagram>
</mxfile>
